<svg xmlns="http://www.w3.org/2000/svg" width="1080" height="500" viewBox="0 0 1080 500" role="img" aria-labelledby="title desc">
  <title id="title">Network activity notification overview</title>
  <desc id="desc">A client subscribes to a network activity endpoint, receives a full-resource activity notification with an inline Parameters signal, then follows hints to discovery or to one data-holder FHIR endpoint where it can query, read, or create a Patient Data Feed subscription.</desc>
  <defs>
    <marker id="arrow" markerWidth="10" markerHeight="10" refX="8" refY="3" orient="auto" markerUnits="strokeWidth">
      <path d="M0,0 L0,6 L9,3 z" fill="#2b4a5f"/>
    </marker>
    <style>
      .box { fill: #ffffff; stroke: #2b4a5f; stroke-width: 2; rx: 8; }
      .soft { fill: #eef6f3; stroke: #2b4a5f; stroke-width: 2; rx: 8; }
      .label { font-family: Arial, sans-serif; font-size: 16px; fill: #14212b; }
      .small { font-family: Arial, sans-serif; font-size: 13px; fill: #33434f; }
      .tag-bg { fill: #ffffff; opacity: 0.94; }
      .line { stroke: #2b4a5f; stroke-width: 2; fill: none; marker-end: url(#arrow); }
      .dash { stroke: #6d7f8b; stroke-width: 2; fill: none; stroke-dasharray: 6 5; marker-end: url(#arrow); }
      .divider { stroke: #d8e0e5; stroke-width: 1; }
    </style>
  </defs>

  <rect width="1080" height="500" fill="#ffffff"/>

  <rect x="60" y="205" width="180" height="90" class="box"/>
  <text x="150" y="242" text-anchor="middle" class="label">Client app</text>
  <text x="150" y="266" text-anchor="middle" class="small">authorized subscriber</text>

  <rect x="405" y="80" width="230" height="95" class="soft"/>
  <text x="520" y="118" text-anchor="middle" class="label">Network activity</text>
  <text x="520" y="142" text-anchor="middle" class="small">control-plane topic</text>

  <rect x="405" y="325" width="230" height="95" class="box"/>
  <text x="520" y="363" text-anchor="middle" class="label">RLS or network query</text>
  <text x="520" y="387" text-anchor="middle" class="small">may accept opaque handle</text>

  <rect x="785" y="145" width="235" height="185" class="box"/>
  <text x="902" y="183" text-anchor="middle" class="label">Data-holder FHIR server</text>
  <text x="902" y="207" text-anchor="middle" class="small">represents a data-holder org</text>
  <line x1="805" y1="230" x2="1000" y2="230" class="divider"/>
  <text x="902" y="260" text-anchor="middle" class="small">query or read once</text>
  <text x="902" y="284" text-anchor="middle" class="small">poll if needed</text>
  <text x="902" y="308" text-anchor="middle" class="small">create Patient Data Feed subscription</text>

  <!-- Network activity subscription and notification. -->
  <path d="M240 230 C315 210 330 128 405 128" class="line"/>
  <rect x="278" y="183" width="92" height="22" class="tag-bg"/>
  <text x="288" y="199" class="small">1. subscribe</text>

  <path d="M405 153 C330 165 315 260 240 265" class="line"/>
  <rect x="270" y="281" width="220" height="22" class="tag-bg"/>
  <text x="280" y="297" class="small">2. activity signal (Parameters)</text>

  <!-- Opaque fallback through discovery or network query. -->
  <path d="M240 282 C305 325 340 400 405 400" class="dash"/>
  <rect x="256" y="333" width="205" height="24" class="tag-bg"/>
  <text x="265" y="350" class="small">3a. follow-up-discovery</text>

  <path d="M635 400 C700 400 715 260 785 260" class="dash"/>
  <rect x="666" y="339" width="142" height="22" class="tag-bg"/>
  <text x="674" y="356" class="small">data-holder hint or result</text>

  <!-- Direct follow-up uses one data-holder FHIR server. -->
  <path d="M150 205 V35 H902 V145" class="dash"/>
  <rect x="420" y="11" width="280" height="22" class="tag-bg"/>
  <text x="428" y="28" class="small">3b. follow-up-read or follow-up-search</text>

  <path d="M150 295 V465 H902 V330" class="dash"/>
  <rect x="356" y="470" width="350" height="22" class="tag-bg"/>
  <text x="364" y="487" class="small">3c. /metadata, then subscribe if supported</text>
</svg>
